<svg height="512pt" preserveAspectRatio="xMidYMid meet" viewBox="0 0 512 512" width="512pt" xmlns="http://www.w3.org/2000/svg"><g transform="matrix(.1 0 0 -.1 0 512)"><path d="m2498 5115c-2-1-31-6-66-9-318-33-650-175-917-391-249-203-436-463-548-765-85-227-109-387-112-735l-2-210-237-395c-131-217-246-411-256-430-22-43-16-80 15-110 23-22 29-22 305-22h281l-6-106c-4-59-8-135-10-169-2-35-6-93-9-130-3-38-9-113-12-168-4-55-8-118-10-140-5-62-5-188-1-205 15-60 23-80 43-121 29-59 105-137 164-170 90-50 141-56 310-34 19 3 58 7 85 10 78 7 155 16 218 24 31 4 57 5 58 2s2-179 3-391c1-412 3-422 52-440 16-6 432-10 1068-10h1043l27 26c19 20 26 37 27 68v438 397l130 323c72 178 189 467 261 643 311 767 343 858 365 1044 12 102 9 378-6 461-42 237-117 439-224 607-15 24-27 45-27 48 0 8-98 144-158 220-343 429-881 738-1417 814-44 7-96 14-115 17-38 6-316 14-322 9zm331-179c3-2 29-7 58-10 88-10 243-46 365-86 441-145 852-464 1100-855 186-294 259-545 253-865-6-263-25-331-265-920-100-245-182-449-184-455-2-5-8-21-13-35-6-14-75-182-154-375l-143-350-3-395c-1-217-3-401-3-407 0-10-194-13-937-13h-938v400 400l-25 25c-28 27-61 32-155 21-69-7-217-24-290-31-27-3-66-8-85-10-128-16-140-16-182 3-83 36-145 124-149 209-1 33 4 121 16 283 2 25 7 92 10 150 4 58 8 125 10 150 9 103 19 269 19 332 1 57-2 71-22 90-22 23-27 23-277 26l-254 3 205 341c113 188 213 356 222 372 13 26 17 68 18 244 2 203 9 367 19 394 2 7 7 31 10 52 32 222 161 508 319 710 259 331 681 564 1086 602 36 3 67 8 69 10 6 5 291-5 300-10z"/><path d="m2074 4405c-265-59-477-251-566-513-42-123-50-290-19-412 24-97 72-202 125-275 39-54 1028-1050 1061-1068 27-15 64-20 94-12 27 7 982 956 1064 1058 126 155 189 396 155 591-12 69-57 207-74 227-8 8-14 19-14 24 0 19-73 115-134 175-104 102-261 186-391 208-52 9-238 9-291 0-96-16-218-70-305-134l-46-33-34 25c-61 46-152 92-234 119-66 23-101 28-205 30-78 2-148-2-186-10zm291-170c94-20 182-65 267-136 93-78 112-78 199-3 236 208 577 204 804-8 177-166 235-401 157-633-39-115-73-154-569-652-266-265-486-483-491-483-4 0-226 219-493 488-506 507-523 527-571 659-15 43-21 87-23 173-3 103 0 124 24 195 44 132 112 226 216 300 81 57 114 73 198 95 87 23 188 25 282 5z"/><path d="m2125 4153c-122-28-243-111-311-213-118-176-117-396 1-574 68-102 120-122 177-66 38 39 34 68-20 139-107 142-100 323 17 448 51 53 144 99 218 106 86 9 120 40 109 102-13 66-74 85-191 58z"/></g></svg>